<?xml version="1.0" encoding="utf-8"?>
<!-- Generator: Adobe Illustrator 25.0.1, SVG Export Plug-In . SVG Version: 6.00 Build 0)  -->
<svg version="1.1" id="Layer_1" xmlns="http://www.w3.org/2000/svg" xmlns:xlink="http://www.w3.org/1999/xlink" x="0px" y="0px"
	 viewBox="0 0 1135.79 323.63" style="enable-background:new 0 0 1135.79 323.63;" xml:space="preserve">
<g>
	<path d="M320.96,255.52c1.24-3.73,2.34-7.36,3.65-10.92c18.92-51.45,38.05-102.82,56.6-154.4c2.86-7.94,6.62-11.11,15.03-10.45
		c11.57,0.91,26.02-3.25,34.07,2.28c7.99,5.49,9.81,20.21,13.92,31.04c8.84,23.26,17.39,46.63,26.11,69.93
		c1.3,3.48,2.89,6.85,4.95,11.69c12.92-20.72,24.97-40.03,37.01-59.34c1.06,0.4,2.12,0.81,3.19,1.21c0,31.65,0,63.3,0,95.8
		c28.22,0,55.22,0,83.16,0c0-8.27,0-16.58,0-26.47c-16.48,0-32.96,0-50.93,0c0-13.09,0-24.64,0-36.18c0-23.74,0.17-47.48-0.16-71.22
		c-0.06-4.33-2.18-8.64-3.35-12.96c-1.2-0.5-2.4-0.99-3.6-1.49c10.26-12.72,19.99-25.93,31.1-37.85c3.33-3.57,10.49-4.99,15.9-5
		c164.62-0.25,329.25-0.22,493.87-0.18c15.89,0,21.99,11.41,13.4,26.23c-24.53,42.31-49.5,84.38-74.29,126.55
		c-11.4,19.4-22.73,38.84-34.18,58.21c-12.01,20.31-28.99,30.74-53.48,30.68c-156.84-0.4-313.68-0.21-470.52-0.2
		c-24.43,0-30.83-10.94-19.51-32.95c2.58-5.01,6.25-10.62,5.93-15.73c-0.89-14.09-5.38-17.24-19.95-17.24
		c-15.57-0.01-31.14,0.29-46.7-0.14c-6.46-0.18-10.45,1.59-11.63,8.2c-0.2,1.14-0.61,2.25-0.98,3.36
		C358.5,260.88,357.93,261.22,320.96,255.52z M718.38,232.8c0-33.09,0-65.2,0-97.31c19.86,29.97,37.65,60.08,55.79,89.99
		c1.94,3.21,5.77,7.06,9.02,7.36c10.27,0.95,20.69,0.35,31.17,0.35c0-49.02,0-96.58,0-144.04c-9.82,0-18.55,0-28.82,0
		c0,32.34,0,63.83,0,98.74c-3.68-5.72-5.4-8.21-6.94-10.81c-15.89-26.74-31.62-53.57-47.78-80.15c-2.15-3.54-6.23-7.84-9.8-8.23
		c-10.25-1.11-20.7-0.39-31.54-0.39c0,48.98,0,96.54,0,144.49C698.86,232.8,707.36,232.8,718.38,232.8z M845.9,88.95
		c0,48.26,0,95.84,0,143.29c10.74,0,20.6,0,31.45,0c0-18.25,0-35.53,0-55.9c4.21,5.14,6.64,7.9,8.84,10.84
		c9.82,13.05,19.44,26.26,29.46,39.15c2.19,2.82,5.6,6.3,8.67,6.53c10.67,0.8,21.43,0.31,34.63,0.31
		c-19.7-26.48-37.92-50.97-56.6-76.08c19.45-22.4,38.61-44.48,58.75-67.67c-22.44-3.14-41.39-3.7-53.16,17.89
		c-3.47,6.36-9.23,11.49-14.06,17.08c-4.83,5.59-9.82,11.05-14.74,16.57c-0.9-0.43-1.79-0.86-2.69-1.29c0-16.88,0-33.76,0-50.71
		C865.54,88.95,856,88.95,845.9,88.95z M623.33,88.98c0,48.26,0,95.8,0,143.4c10.76,0,20.65,0,30.4,0c0-48.4,0-95.94,0-143.4
		C643.07,88.98,633.49,88.98,623.33,88.98z M431.41,182.91c-7.83-22.02-15.13-42.54-22.43-63.06c-0.85,0.01-1.69,0.02-2.54,0.03
		c-7.03,20.61-14.06,41.22-21.49,63.03C401.07,182.91,415.27,182.91,431.41,182.91z"/>
	<path d="M204.67,78.64c25.81,1.16,51.58,0.32,76.67,4.01c25.43,3.73,39.02,22.16,40.29,47.17c1.44,28.39-12.13,51.14-37.65,59.07
		c-13.07,4.06-27.27,4.47-42.28,6.72c0,18.99,0,39.01,0,60.09c-12.86,0-24.57,0-37.04,0C204.67,197.56,204.67,139.42,204.67,78.64z
		 M241.63,162.13c15.56,0.17,30.66,2.49,39.16-13.03c5.28-9.64,6.15-20.84-1.26-29.62c-10.22-12.1-24.49-7.58-37.9-7.93
		C241.63,128.88,241.63,144.7,241.63,162.13z"/>
	<path d="M166.54,220.94c1.68,9.14,3.82,17.78,4.53,26.54c0.19,2.42-3.45,6.82-6.09,7.53c-29.35,7.88-58.48,8.17-86.41-5.49
		c-6.52-3.19-12.42-7.97-17.96-12.77C25.42,206.28,24.38,107.67,93.39,83.09c24.43-8.7,56.93-7.72,77.95,3.32
		c-2.19,10.22-4.43,20.71-6.88,32.16c-29.35-9.3-58.38-15.03-78.04,14.92c-14.23,21.68-15.01,46.73-1.07,68.62
		C104.92,232.84,135.67,227.01,166.54,220.94z"/>
</g>
</svg>
